<svg width="22" height="26" viewBox="0 0 22 26" fill="none" xmlns="http://www.w3.org/2000/svg">
<path d="M14.8438 6.49414C14.8438 5.12695 14.0625 3.85742 12.8906 3.125C11.6699 2.44141 10.1562 2.44141 8.98438 3.125C7.76367 3.85742 7.03125 5.12695 7.03125 6.49414C7.03125 7.91016 7.76367 9.17969 8.98438 9.91211C10.1562 10.5957 11.6699 10.5957 12.8906 9.91211C14.0625 9.17969 14.8438 7.91016 14.8438 6.49414ZM4.6875 6.49414C4.6875 4.29688 5.85938 2.24609 7.8125 1.12305C9.7168 0 12.1094 0 14.0625 1.12305C15.9668 2.24609 17.1875 4.29688 17.1875 6.49414C17.1875 8.74023 15.9668 10.791 14.0625 11.9141C12.1094 13.0371 9.7168 13.0371 7.8125 11.9141C5.85938 10.791 4.6875 8.74023 4.6875 6.49414ZM2.39258 22.9004H19.4336C18.9941 19.8242 16.3574 17.4316 13.1348 17.4316H8.69141C5.46875 17.4316 2.83203 19.8242 2.39258 22.9004ZM0 23.8281C0 18.9941 3.85742 15.0879 8.69141 15.0879H13.1348C17.9688 15.0879 21.875 18.9941 21.875 23.8281C21.875 24.6094 21.1914 25.2441 20.4102 25.2441H1.41602C0.634766 25.2441 0 24.6094 0 23.8281Z" fill="#CE2C2C"/>
</svg>
